<svg id="Layer_1" data-name="Layer 1" xmlns="http://www.w3.org/2000/svg" viewBox="0 0 652.48 138.71"><title>shein</title><path d="M568.6,16h0c.36.36.73.72,1.08,1.08q36.21,33.51,72.43,67V20h28.1V154.7c-24.5-22.7-49-45.76-73.86-68.45V150H568.6V16Z" transform="translate(-17.72 -15.99)"/><path d="M27.45,36.89C35,25.72,48.35,19.59,61.32,18.15c19.81-1.8,41.43,1.44,56.92,15.13-6.48,6.13-13.33,11.89-19.82,18-7.2-6.49-16.93-9.73-26.66-9.73C64.56,41.21,57,43.73,53,49.86a11,11,0,0,0,2.16,14c6.48,5.4,14.77,7.92,22.7,10.81,11.53,3.6,23.06,7.56,32.42,15.49,13,10.45,15.86,31.7,5.77,45-8.65,11.53-22.7,17.65-36.75,18.73-12.61.36-25.22,0-37.11-4.32-9-2.88-16.93-7.93-24.5-13.34C24.2,130.2,31.05,124.07,37.54,118c11.16,8.65,25.58,13.33,39.63,11.53,6.12-1.08,12.61-4.32,14.77-10.45,1.44-5.4-1.8-10.81-6.49-13.33C71,97.41,54.11,95.62,40.06,86.61c-7.57-4.69-14-11.89-16.58-20.54-2.88-10.09-1.8-20.9,4-29.18Z" transform="translate(-17.72 -15.99)"/><path d="M170.12,20.31h28.1V71.83h56.93V20.31h28.46V150.74H255.15V93.09H198.22v57.65h-28.1V20.31Z" transform="translate(-17.72 -15.99)"/><path d="M338.74,20.31h95.84v20.9h-68.1v31h67V92.73h-67V128.4h68.1v22.34H338.74V20.31Z" transform="translate(-17.72 -15.99)"/><path d="M484.65,20.31h28.11V150.74H484.65V20.31Z" transform="translate(-17.72 -15.99)"/></svg>